<svg width="50" height="42" viewBox="0 0 50 42" fill="none" xmlns="http://www.w3.org/2000/svg">
<path d="M17.6838 8.1812C18.369 7.08712 19.1912 6.05164 20.1309 5.11386C26.9632 -1.70462 38.0435 -1.70462 44.8758 5.11386C51.7081 11.9323 51.7081 22.9904 44.8758 29.8089L33.1494 41.5116L33.3647 34.9081C31.5245 35.0057 29.6647 34.8104 27.8833 34.3219C25.0446 33.5405 22.3626 32.0556 20.1309 29.8284C19.7589 29.4572 19.4261 29.086 19.0933 28.6952C16.3134 25.3935 14.9431 21.3102 15.0018 17.2269C15.0605 14.0619 15.9415 10.9359 17.6838 8.1812ZM40.4123 16.7385C40.4123 12.3817 36.9849 8.95536 32.5034 8.84546C28.0218 8.73556 23.8843 11.6127 23.8843 16.7385C23.8843 21.8642 27.4191 24.6315 32.5034 24.6315C37.5876 24.6315 40.4123 21.0953 40.4123 16.7385Z" fill="#26D8C0"/>
<rect x="-0.5" y="0.5" width="21" height="11" rx="4.5" transform="matrix(-1 0 0 1 21 0)" fill="#26D8C0"/>
<circle cx="16" cy="6" r="1" fill="white"/>
<circle cx="11" cy="6" r="1" fill="white"/>
<circle cx="6" cy="6" r="1" fill="white"/>
<rect x="-0.5" y="0.5" width="21" height="11" rx="4.5" transform="matrix(-1 0 0 1 21 0)" stroke="white"/>
</svg>
