<svg width="28" height="29" viewBox="0 0 28 29" fill="none" xmlns="http://www.w3.org/2000/svg">
<circle cx="14" cy="14.0215" r="14" fill="white"/>
<circle cx="14" cy="14.0215" r="13.5" stroke="#F8683A" stroke-opacity="0.4"/>
<path d="M18.2332 9.42243C18.0374 9.10135 17.8025 8.79747 17.534 8.52226C15.582 6.52123 12.4161 6.52123 10.4641 8.52226C8.51198 10.5233 8.51198 13.7685 10.4641 15.7695L13.8275 22.0215L15.0343 19.2642C15.0343 19.2642 16.7583 16.7386 16.9307 16.6227C17.1031 16.5069 16.8964 16.4289 17.534 15.7753C17.6403 15.6663 17.7354 15.5574 17.8305 15.4427C18.6247 14.4737 19.0163 13.2754 18.9995 12.0771C18.9827 11.1482 18.731 10.2309 18.2332 9.42243ZM11.7393 11.9338C11.7393 10.6552 12.7517 9.61738 13.999 9.61738C14.8436 9.61738 15.582 10.0933 15.9679 10.7985C16.6704 12.8645 15.751 13.2167 15.2912 13.9211C15.1189 14.1852 14.1948 14.2501 13.999 14.2501C12.8776 14.2501 11.7393 13.2123 11.7393 11.9338Z" fill="#F8683A" fill-opacity="0.4"/>
</svg>
