<svg width="35" height="36" viewBox="0 0 35 36" fill="none" xmlns="http://www.w3.org/2000/svg">
<circle cx="17.5" cy="17.5215" r="17.5" fill="white"/>
<circle cx="17.5" cy="17.5215" r="17" stroke="#F8683A" stroke-opacity="0.4"/>
<path d="M25 17.0215H27V15.0215H25V17.0215ZM26 21.5215C24.75 21.5215 23.55 21.3215 22.43 20.9515C22.08 20.8415 21.69 20.9215 21.41 21.2015L19.21 23.4015C16.38 21.9615 14.06 19.6415 12.62 16.8115L14.82 14.6115C15.1 14.3315 15.18 13.9415 15.07 13.5915C14.7 12.4715 14.5 11.2715 14.5 10.0215C14.5 9.47148 14.05 9.02148 13.5 9.02148H10C9.45 9.02148 9 9.47148 9 10.0215C9 19.4115 16.61 27.0215 26 27.0215C26.55 27.0215 27 26.5715 27 26.0215V22.5215C27 21.9715 26.55 21.5215 26 21.5215ZM23 15.0215H21V17.0215H23V15.0215ZM19 15.0215H17V17.0215H19V15.0215Z" fill="#F8683A" fill-opacity="0.4"/>
</svg>
