<svg width="50" height="42" viewBox="0 0 50 42" fill="none" xmlns="http://www.w3.org/2000/svg">
<path d="M32.3162 8.1812C31.631 7.08712 30.8088 6.05164 29.8691 5.11386C23.0368 -1.70462 11.9565 -1.70462 5.12419 5.11386C-1.70807 11.9323 -1.70807 22.9904 5.12419 29.8089L16.8506 41.5116L16.6353 34.9081C18.4755 35.0057 20.3353 34.8104 22.1167 34.3219C24.9554 33.5405 27.6374 32.0556 29.8691 29.8284C30.2411 29.4572 30.5739 29.086 30.9067 28.6952C33.6866 25.3935 35.0569 21.3102 34.9982 17.2269C34.9395 14.0619 34.0585 10.9359 32.3162 8.1812ZM9.58767 16.7385C9.58767 12.3817 13.0151 8.95536 17.4966 8.84546C21.9782 8.73556 26.1157 11.6127 26.1157 16.7385C26.1157 21.8642 22.5809 24.6315 17.4966 24.6315C12.4124 24.6315 9.58767 21.0953 9.58767 16.7385Z" fill="#F8683A"/>
<rect x="28.5" y="0.5" width="21" height="11" rx="4.5" fill="#F8683A"/>
<circle r="1" transform="matrix(-1 0 0 1 34 6)" fill="white"/>
<circle r="1" transform="matrix(-1 0 0 1 39 6)" fill="white"/>
<circle r="1" transform="matrix(-1 0 0 1 44 6)" fill="white"/>
<rect x="28.5" y="0.5" width="21" height="11" rx="4.5" stroke="white"/>
</svg>
