<svg width="17" height="9" viewBox="0 0 17 9" fill="none" xmlns="http://www.w3.org/2000/svg">
<path d="M16.3054 3.9453L13.1772 0.820304C13.0299 0.673192 12.8302 0.590546 12.6219 0.590546C12.4136 0.590546 12.2139 0.673192 12.0666 0.820304C11.9194 0.967417 11.8366 1.16694 11.8366 1.37499C11.8366 1.58304 11.9194 1.78257 12.0666 1.92968L13.8654 3.71874H0.890951C0.683534 3.71874 0.484613 3.80105 0.337948 3.94757C0.191282 4.09408 0.108887 4.29279 0.108887 4.49999C0.108887 4.70719 0.191282 4.90591 0.337948 5.05242C0.484613 5.19893 0.683534 5.28124 0.890951 5.28124H13.8654L12.0666 7.07031C11.9933 7.14293 11.9352 7.22934 11.8955 7.32454C11.8558 7.41974 11.8353 7.52186 11.8353 7.62499C11.8353 7.72813 11.8558 7.83024 11.8955 7.92544C11.9352 8.02065 11.9933 8.10705 12.0666 8.17968C12.1393 8.2529 12.2258 8.31103 12.3211 8.35069C12.4164 8.39035 12.5187 8.41077 12.6219 8.41077C12.7251 8.41077 12.8274 8.39035 12.9227 8.35069C13.018 8.31103 13.1045 8.2529 13.1772 8.17968L16.3054 5.05468C16.3787 4.98205 16.4369 4.89565 16.4766 4.80044C16.5163 4.70524 16.5368 4.60313 16.5368 4.49999C16.5368 4.39686 16.5163 4.29474 16.4766 4.19954C16.4369 4.10434 16.3787 4.01793 16.3054 3.9453Z" fill="#F8683A"/>
</svg>
